<svg width="50" height="50" viewBox="0 0 50 50" fill="none" xmlns="http://www.w3.org/2000/svg">
<path d="M29.2725 43.5585L35.3492 41.064C38.2735 39.8633 39.7356 39.2631 40.7956 38.2569C41.6329 37.4621 42.2835 36.4915 42.7008 35.4152C43.2292 34.0525 43.2292 32.4719 43.2292 29.3108C43.2292 28.8998 43.2292 28.6944 43.1396 28.5621C43.0696 28.459 42.965 28.3842 42.8448 28.3515C42.6906 28.3096 42.4962 28.3762 42.1075 28.5096L26.2162 33.9579C25.6812 34.1415 25.4137 34.2331 25.1375 34.2515C25.046 34.2575 24.954 34.2575 24.8625 34.2515C24.5862 34.2331 24.3187 34.1415 23.7837 33.9579L7.89252 28.5096C7.50381 28.3762 7.30945 28.3096 7.15527 28.3515C7.03493 28.3842 6.93033 28.459 6.86041 28.5621C6.77083 28.6944 6.77083 28.8998 6.77083 29.3108C6.77083 32.4719 6.77083 34.0525 7.29914 35.4152C7.71647 36.4915 8.36718 37.4621 9.20443 38.2569C10.2644 39.2631 11.7265 39.8633 14.6508 41.064L20.7276 43.5585C22.599 44.3269 23.5348 44.711 24.5135 44.7873C24.8373 44.8127 25.1627 44.8127 25.4865 44.7873C26.4652 44.711 27.401 44.3269 29.2725 43.5585Z" fill="black" fill-opacity="0.25"/>
<path fill-rule="evenodd" clip-rule="evenodd" d="M19.2716 10.4167C19.2716 7.25254 21.8367 4.6875 25.0006 4.6875C28.1648 4.6875 30.7298 7.25254 30.7298 10.4167C30.7298 13.0391 28.9679 15.25 26.5631 15.9302V17.1785L40.2638 22.6654C41.9425 23.3377 42.7819 23.674 42.9042 24.2044C42.9419 24.3681 42.9396 24.5385 42.8973 24.701C42.76 25.2279 41.9117 25.5404 40.2148 26.1654L25.649 31.5315C25.3642 31.6362 25.2219 31.6887 25.0742 31.6992C25.0252 31.7025 24.9763 31.7025 24.9273 31.6992C24.7796 31.6887 24.6373 31.6362 24.3525 31.5315L9.78667 26.1654C8.08982 25.5404 7.24138 25.2279 7.10422 24.701C7.06186 24.5385 7.05949 24.3681 7.09726 24.2044C7.21965 23.674 8.05901 23.3377 9.73771 22.6654L23.4381 17.1785V15.9302C21.0335 15.25 19.2716 13.0391 19.2716 10.4167Z" fill="#001A26"/>
</svg>
