<svg width="50" height="50" viewBox="0 0 50 50" fill="none" xmlns="http://www.w3.org/2000/svg">
<path d="M17.7083 38.6458C17.7083 38.0625 17.7083 37.7708 17.8219 37.5479C17.9217 37.3519 18.0811 37.1925 18.2771 37.0927C18.4999 36.9792 18.7916 36.9792 19.375 36.9792H30.625C31.2083 36.9792 31.5 36.9792 31.7229 37.0927C31.919 37.1925 32.0783 37.3519 32.1781 37.5479C32.2917 37.7708 32.2917 38.0625 32.2917 38.6458C32.2917 40.9794 32.2917 42.1462 31.8375 43.0375C31.4381 43.8214 30.8006 44.4589 30.0167 44.8583C29.1254 45.3125 27.9586 45.3125 25.625 45.3125H24.375C22.0415 45.3125 20.8746 45.3125 19.9834 44.8583C19.1994 44.4589 18.5619 43.8214 18.1625 43.0375C17.7083 42.1462 17.7083 40.9794 17.7083 38.6458Z" fill="#001A26"/>
<path d="M19.0567 34.8958H30.9433C31.2479 34.8958 31.4002 34.8958 31.5254 34.8642C31.8971 34.7706 32.1873 34.4804 32.2808 34.1087C32.3125 33.9835 32.3125 33.8312 32.3125 33.5267V32.764C32.3125 32.0477 32.5498 31.3517 32.9875 30.7846L35.9431 26.9542C42.955 17.8671 36.4777 4.6875 25 4.6875C13.5223 4.6875 7.04496 17.8671 14.0568 26.9542L17.0126 30.7846C17.4502 31.3517 17.6875 32.0477 17.6875 32.764V33.5267C17.6875 33.8312 17.6875 33.9835 17.7191 34.1087C17.8128 34.4804 18.1029 34.7706 18.4745 34.8642C18.5999 34.8958 18.7522 34.8958 19.0567 34.8958Z" fill="#001A26" fill-opacity="0.25"/>
<path d="M21.875 23.9583L25 29.1667L28.125 23.9583" stroke="#001A26" stroke-width="3.125" stroke-linecap="round" stroke-linejoin="round"/>
</svg>
