<svg width="148" height="140" viewBox="0 0 148 140" fill="none" xmlns="http://www.w3.org/2000/svg">
<path d="M9.95 131.41C9.95 133.04 8.63 134.36 7 134.36C5.37 134.36 4.05 133.04 4.05 131.41C4.05 129.78 5.37 128.46 7 128.46C8.63 128.46 9.95 129.78 9.95 131.41Z" fill="black"/>
<path d="M25.86 134.36C27.4892 134.36 28.81 133.039 28.81 131.41C28.81 129.781 27.4892 128.46 25.86 128.46C24.2308 128.46 22.91 129.781 22.91 131.41C22.91 133.039 24.2308 134.36 25.86 134.36Z" fill="black"/>
<path d="M44.71 134.36C46.3392 134.36 47.66 133.039 47.66 131.41C47.66 129.781 46.3392 128.46 44.71 128.46C43.0808 128.46 41.76 129.781 41.76 131.41C41.76 133.039 43.0808 134.36 44.71 134.36Z" fill="black"/>
<path d="M63.57 134.36C65.1992 134.36 66.52 133.039 66.52 131.41C66.52 129.781 65.1992 128.46 63.57 128.46C61.9408 128.46 60.62 129.781 60.62 131.41C60.62 133.039 61.9408 134.36 63.57 134.36Z" fill="black"/>
<path d="M82.43 134.36C84.0592 134.36 85.38 133.039 85.38 131.41C85.38 129.781 84.0592 128.46 82.43 128.46C80.8008 128.46 79.48 129.781 79.48 131.41C79.48 133.039 80.8008 134.36 82.43 134.36Z" fill="black"/>
<path d="M101.29 134.36C102.919 134.36 104.24 133.039 104.24 131.41C104.24 129.781 102.919 128.46 101.29 128.46C99.6608 128.46 98.34 129.781 98.34 131.41C98.34 133.039 99.6608 134.36 101.29 134.36Z" fill="black"/>
<path d="M120.14 134.36C121.769 134.36 123.09 133.039 123.09 131.41C123.09 129.781 121.769 128.46 120.14 128.46C118.511 128.46 117.19 129.781 117.19 131.41C117.19 133.039 118.511 134.36 120.14 134.36Z" fill="black"/>
<path d="M141.95 131.41C141.95 133.04 140.63 134.36 139 134.36C137.37 134.36 136.05 133.04 136.05 131.41C136.05 129.78 137.37 128.46 139 128.46C140.63 128.46 141.95 129.78 141.95 131.41Z" fill="black"/>
<path d="M9.95 113.61C9.95 115.24 8.63 116.56 7 116.56C5.37 116.56 4.05 115.24 4.05 113.61C4.05 111.98 5.37 110.66 7 110.66C8.63 110.66 9.95 111.98 9.95 113.61Z" fill="black"/>
<path d="M25.86 116.56C27.4892 116.56 28.81 115.239 28.81 113.61C28.81 111.981 27.4892 110.66 25.86 110.66C24.2308 110.66 22.91 111.981 22.91 113.61C22.91 115.239 24.2308 116.56 25.86 116.56Z" fill="black"/>
<path d="M44.71 116.56C46.3392 116.56 47.66 115.239 47.66 113.61C47.66 111.981 46.3392 110.66 44.71 110.66C43.0808 110.66 41.76 111.981 41.76 113.61C41.76 115.239 43.0808 116.56 44.71 116.56Z" fill="black"/>
<path d="M63.57 116.56C65.1992 116.56 66.52 115.239 66.52 113.61C66.52 111.981 65.1992 110.66 63.57 110.66C61.9408 110.66 60.62 111.981 60.62 113.61C60.62 115.239 61.9408 116.56 63.57 116.56Z" fill="black"/>
<path d="M82.43 116.56C84.0592 116.56 85.38 115.239 85.38 113.61C85.38 111.981 84.0592 110.66 82.43 110.66C80.8008 110.66 79.48 111.981 79.48 113.61C79.48 115.239 80.8008 116.56 82.43 116.56Z" fill="black"/>
<path d="M101.29 116.56C102.919 116.56 104.24 115.239 104.24 113.61C104.24 111.981 102.919 110.66 101.29 110.66C99.6608 110.66 98.34 111.981 98.34 113.61C98.34 115.239 99.6608 116.56 101.29 116.56Z" fill="black"/>
<path d="M120.14 116.56C121.769 116.56 123.09 115.239 123.09 113.61C123.09 111.981 121.769 110.66 120.14 110.66C118.511 110.66 117.19 111.981 117.19 113.61C117.19 115.239 118.511 116.56 120.14 116.56Z" fill="black"/>
<path d="M141.95 113.61C141.95 115.24 140.63 116.56 139 116.56C137.37 116.56 136.05 115.24 136.05 113.61C136.05 111.98 137.37 110.66 139 110.66C140.63 110.66 141.95 111.98 141.95 113.61Z" fill="black"/>
<path d="M9.95 95.81C9.95 97.44 8.63 98.76 7 98.76C5.37 98.76 4.05 97.44 4.05 95.81C4.05 94.18 5.37 92.86 7 92.86C8.63 92.86 9.95 94.18 9.95 95.81Z" fill="black"/>
<path d="M25.86 98.76C27.4892 98.76 28.81 97.4392 28.81 95.81C28.81 94.1808 27.4892 92.86 25.86 92.86C24.2308 92.86 22.91 94.1808 22.91 95.81C22.91 97.4392 24.2308 98.76 25.86 98.76Z" fill="black"/>
<path d="M44.71 98.76C46.3392 98.76 47.66 97.4392 47.66 95.81C47.66 94.1808 46.3392 92.86 44.71 92.86C43.0808 92.86 41.76 94.1808 41.76 95.81C41.76 97.4392 43.0808 98.76 44.71 98.76Z" fill="black"/>
<path d="M63.57 98.76C65.1992 98.76 66.52 97.4392 66.52 95.81C66.52 94.1808 65.1992 92.86 63.57 92.86C61.9408 92.86 60.62 94.1808 60.62 95.81C60.62 97.4392 61.9408 98.76 63.57 98.76Z" fill="black"/>
<path d="M82.43 98.76C84.0592 98.76 85.38 97.4392 85.38 95.81C85.38 94.1808 84.0592 92.86 82.43 92.86C80.8008 92.86 79.48 94.1808 79.48 95.81C79.48 97.4392 80.8008 98.76 82.43 98.76Z" fill="black"/>
<path d="M101.29 98.76C102.919 98.76 104.24 97.4392 104.24 95.81C104.24 94.1808 102.919 92.86 101.29 92.86C99.6608 92.86 98.34 94.1808 98.34 95.81C98.34 97.4392 99.6608 98.76 101.29 98.76Z" fill="black"/>
<path d="M120.14 98.76C121.769 98.76 123.09 97.4392 123.09 95.81C123.09 94.1808 121.769 92.86 120.14 92.86C118.511 92.86 117.19 94.1808 117.19 95.81C117.19 97.4392 118.511 98.76 120.14 98.76Z" fill="black"/>
<path d="M141.95 95.81C141.95 97.44 140.63 98.76 139 98.76C137.37 98.76 136.05 97.44 136.05 95.81C136.05 94.18 137.37 92.86 139 92.86C140.63 92.86 141.95 94.18 141.95 95.81Z" fill="black"/>
<path d="M9.95 78.01C9.95 79.64 8.63 80.96 7 80.96C5.37 80.96 4.05 79.64 4.05 78.01C4.05 76.38 5.37 75.06 7 75.06C8.63 75.07 9.95 76.39 9.95 78.01Z" fill="black"/>
<path d="M28.8 78.01C28.8 79.64 27.48 80.96 25.85 80.96C24.22 80.96 22.9 79.64 22.9 78.01C22.9 76.38 24.22 75.06 25.85 75.06C27.48 75.07 28.8 76.39 28.8 78.01Z" fill="black"/>
<path d="M47.66 78.01C47.66 79.64 46.34 80.96 44.71 80.96C43.08 80.96 41.76 79.64 41.76 78.01C41.76 76.38 43.08 75.06 44.71 75.06C46.34 75.07 47.66 76.39 47.66 78.01Z" fill="black"/>
<path d="M66.52 78.01C66.52 79.64 65.2 80.96 63.57 80.96C61.94 80.96 60.62 79.64 60.62 78.01C60.62 76.38 61.94 75.06 63.57 75.06C65.2 75.07 66.52 76.39 66.52 78.01Z" fill="black"/>
<path d="M85.37 78.01C85.37 79.64 84.05 80.96 82.42 80.96C80.79 80.96 79.47 79.64 79.47 78.01C79.47 76.38 80.79 75.06 82.42 75.06C84.06 75.07 85.37 76.39 85.37 78.01Z" fill="black"/>
<path d="M104.23 78.01C104.23 79.64 102.91 80.96 101.28 80.96C99.65 80.96 98.33 79.64 98.33 78.01C98.33 76.38 99.65 75.06 101.28 75.06C102.91 75.07 104.23 76.39 104.23 78.01Z" fill="black"/>
<path d="M123.09 78.01C123.09 79.64 121.77 80.96 120.14 80.96C118.51 80.96 117.19 79.64 117.19 78.01C117.19 76.38 118.51 75.06 120.14 75.06C121.77 75.07 123.09 76.39 123.09 78.01Z" fill="black"/>
<path d="M141.95 78.01C141.95 79.64 140.63 80.96 139 80.96C137.37 80.96 136.05 79.64 136.05 78.01C136.05 76.38 137.37 75.06 139 75.06C140.63 75.07 141.95 76.39 141.95 78.01Z" fill="black"/>
<path d="M9.95 60.22C9.95 61.85 8.63 63.17 7 63.17C5.37 63.17 4.05 61.85 4.05 60.22C4.05 58.59 5.37 57.27 7 57.27C8.63 57.27 9.95 58.59 9.95 60.22Z" fill="black"/>
<path d="M28.8 60.22C28.8 61.85 27.48 63.17 25.85 63.17C24.22 63.17 22.9 61.85 22.9 60.22C22.9 58.59 24.22 57.27 25.85 57.27C27.48 57.27 28.8 58.59 28.8 60.22Z" fill="black"/>
<path d="M47.66 60.22C47.66 61.85 46.34 63.17 44.71 63.17C43.08 63.17 41.76 61.85 41.76 60.22C41.76 58.59 43.08 57.27 44.71 57.27C46.34 57.27 47.66 58.59 47.66 60.22Z" fill="black"/>
<path d="M66.52 60.22C66.52 61.85 65.2 63.17 63.57 63.17C61.94 63.17 60.62 61.85 60.62 60.22C60.62 58.59 61.94 57.27 63.57 57.27C65.2 57.27 66.52 58.59 66.52 60.22Z" fill="black"/>
<path d="M85.37 60.22C85.37 61.85 84.05 63.17 82.42 63.17C80.79 63.17 79.47 61.85 79.47 60.22C79.47 58.59 80.79 57.27 82.42 57.27C84.06 57.27 85.37 58.59 85.37 60.22Z" fill="black"/>
<path d="M104.23 60.22C104.23 61.85 102.91 63.17 101.28 63.17C99.65 63.17 98.33 61.85 98.33 60.22C98.33 58.59 99.65 57.27 101.28 57.27C102.91 57.27 104.23 58.59 104.23 60.22Z" fill="black"/>
<path d="M123.09 60.22C123.09 61.85 121.77 63.17 120.14 63.17C118.51 63.17 117.19 61.85 117.19 60.22C117.19 58.59 118.51 57.27 120.14 57.27C121.77 57.27 123.09 58.59 123.09 60.22Z" fill="black"/>
<path d="M141.95 60.22C141.95 61.85 140.63 63.17 139 63.17C137.37 63.17 136.05 61.85 136.05 60.22C136.05 58.59 137.37 57.27 139 57.27C140.63 57.27 141.95 58.59 141.95 60.22Z" fill="black"/>
<path d="M9.95 42.42C9.95 44.05 8.63 45.37 7 45.37C5.37 45.37 4.05 44.05 4.05 42.42C4.05 40.79 5.37 39.47 7 39.47C8.63 39.47 9.95 40.79 9.95 42.42Z" fill="black"/>
<path d="M28.8 42.42C28.8 44.05 27.48 45.37 25.85 45.37C24.22 45.37 22.9 44.05 22.9 42.42C22.9 40.79 24.22 39.47 25.85 39.47C27.48 39.47 28.8 40.79 28.8 42.42Z" fill="black"/>
<path d="M47.66 42.42C47.66 44.05 46.34 45.37 44.71 45.37C43.08 45.37 41.76 44.05 41.76 42.42C41.76 40.79 43.08 39.47 44.71 39.47C46.34 39.47 47.66 40.79 47.66 42.42Z" fill="black"/>
<path d="M66.52 42.42C66.52 44.05 65.2 45.37 63.57 45.37C61.94 45.37 60.62 44.05 60.62 42.42C60.62 40.79 61.94 39.47 63.57 39.47C65.2 39.47 66.52 40.79 66.52 42.42Z" fill="black"/>
<path d="M85.37 42.42C85.37 44.05 84.05 45.37 82.42 45.37C80.79 45.37 79.47 44.05 79.47 42.42C79.47 40.79 80.79 39.47 82.42 39.47C84.06 39.47 85.37 40.79 85.37 42.42Z" fill="black"/>
<path d="M104.23 42.42C104.23 44.05 102.91 45.37 101.28 45.37C99.65 45.37 98.33 44.05 98.33 42.42C98.33 40.79 99.65 39.47 101.28 39.47C102.91 39.47 104.23 40.79 104.23 42.42Z" fill="black"/>
<path d="M123.09 42.42C123.09 44.05 121.77 45.37 120.14 45.37C118.51 45.37 117.19 44.05 117.19 42.42C117.19 40.79 118.51 39.47 120.14 39.47C121.77 39.47 123.09 40.79 123.09 42.42Z" fill="black"/>
<path d="M141.95 42.42C141.95 44.05 140.63 45.37 139 45.37C137.37 45.37 136.05 44.05 136.05 42.42C136.05 40.79 137.37 39.47 139 39.47C140.63 39.47 141.95 40.79 141.95 42.42Z" fill="black"/>
<path d="M9.95 24.62C9.95 26.25 8.63 27.57 7 27.57C5.37 27.57 4.05 26.25 4.05 24.62C4.05 22.99 5.37 21.67 7 21.67C8.63 21.67 9.95 22.99 9.95 24.62Z" fill="black"/>
<path d="M25.86 27.57C27.4892 27.57 28.81 26.2492 28.81 24.62C28.81 22.9908 27.4892 21.67 25.86 21.67C24.2308 21.67 22.91 22.9908 22.91 24.62C22.91 26.2492 24.2308 27.57 25.86 27.57Z" fill="black"/>
<path d="M44.71 27.57C46.3392 27.57 47.66 26.2492 47.66 24.62C47.66 22.9908 46.3392 21.67 44.71 21.67C43.0808 21.67 41.76 22.9908 41.76 24.62C41.76 26.2492 43.0808 27.57 44.71 27.57Z" fill="black"/>
<path d="M63.57 27.57C65.1992 27.57 66.52 26.2492 66.52 24.62C66.52 22.9908 65.1992 21.67 63.57 21.67C61.9408 21.67 60.62 22.9908 60.62 24.62C60.62 26.2492 61.9408 27.57 63.57 27.57Z" fill="black"/>
<path d="M82.43 27.57C84.0592 27.57 85.38 26.2492 85.38 24.62C85.38 22.9908 84.0592 21.67 82.43 21.67C80.8008 21.67 79.48 22.9908 79.48 24.62C79.48 26.2492 80.8008 27.57 82.43 27.57Z" fill="black"/>
<path d="M101.29 27.57C102.919 27.57 104.24 26.2492 104.24 24.62C104.24 22.9908 102.919 21.67 101.29 21.67C99.6608 21.67 98.34 22.9908 98.34 24.62C98.34 26.2492 99.6608 27.57 101.29 27.57Z" fill="black"/>
<path d="M120.14 27.57C121.769 27.57 123.09 26.2492 123.09 24.62C123.09 22.9908 121.769 21.67 120.14 21.67C118.511 21.67 117.19 22.9908 117.19 24.62C117.19 26.2492 118.511 27.57 120.14 27.57Z" fill="black"/>
<path d="M141.95 24.62C141.95 26.25 140.63 27.57 139 27.57C137.37 27.57 136.05 26.25 136.05 24.62C136.05 22.99 137.37 21.67 139 21.67C140.63 21.67 141.95 22.99 141.95 24.62Z" fill="black"/>
<path d="M9.95 6.82C9.95 8.45 8.63 9.77 7 9.77C5.37 9.77 4.05 8.45 4.05 6.82C4.05 5.2 5.37 3.88 7 3.88C8.63 3.88 9.95 5.2 9.95 6.82Z" fill="black"/>
<path d="M25.86 9.77C27.4892 9.77 28.81 8.44924 28.81 6.82C28.81 5.19076 27.4892 3.87 25.86 3.87C24.2308 3.87 22.91 5.19076 22.91 6.82C22.91 8.44924 24.2308 9.77 25.86 9.77Z" fill="black"/>
<path d="M44.71 9.77C46.3392 9.77 47.66 8.44924 47.66 6.82C47.66 5.19076 46.3392 3.87 44.71 3.87C43.0808 3.87 41.76 5.19076 41.76 6.82C41.76 8.44924 43.0808 9.77 44.71 9.77Z" fill="black"/>
<path d="M63.57 9.77C65.1992 9.77 66.52 8.44924 66.52 6.82C66.52 5.19076 65.1992 3.87 63.57 3.87C61.9408 3.87 60.62 5.19076 60.62 6.82C60.62 8.44924 61.9408 9.77 63.57 9.77Z" fill="black"/>
<path d="M82.43 9.77C84.0592 9.77 85.38 8.44924 85.38 6.82C85.38 5.19076 84.0592 3.87 82.43 3.87C80.8008 3.87 79.48 5.19076 79.48 6.82C79.48 8.44924 80.8008 9.77 82.43 9.77Z" fill="black"/>
<path d="M101.29 9.77C102.919 9.77 104.24 8.44924 104.24 6.82C104.24 5.19076 102.919 3.87 101.29 3.87C99.6608 3.87 98.34 5.19076 98.34 6.82C98.34 8.44924 99.6608 9.77 101.29 9.77Z" fill="black"/>
<path d="M120.14 9.77C121.769 9.77 123.09 8.44924 123.09 6.82C123.09 5.19076 121.769 3.87 120.14 3.87C118.511 3.87 117.19 5.19076 117.19 6.82C117.19 8.44924 118.511 9.77 120.14 9.77Z" fill="black"/>
<path d="M141.95 6.82C141.95 8.45 140.63 9.77 139 9.77C137.37 9.77 136.05 8.45 136.05 6.82C136.05 5.19 137.37 3.87 139 3.87C140.63 3.88 141.95 5.2 141.95 6.82Z" fill="black"/>
</svg>
