<svg width="1440" height="813" viewBox="0 0 1440 813" fill="none" xmlns="http://www.w3.org/2000/svg">
<path d="M0 52.4117L109.798 12.4485C131.89 4.40752 156.11 4.40753 178.202 12.4485L253.798 39.9632C275.89 48.0042 300.11 48.0042 322.202 39.9632L397.798 12.4485C419.89 4.40752 444.11 4.40753 466.202 12.4485L541.798 39.9632C563.89 48.0042 588.11 48.0042 610.202 39.9632L685.798 12.4485C707.89 4.40752 732.11 4.40753 754.202 12.4485L829.798 39.9632C851.89 48.0042 876.11 48.0042 898.202 39.9632L973.798 12.4485C995.89 4.40752 1020.11 4.40753 1042.2 12.4485L1117.8 39.9632C1139.89 48.0042 1164.11 48.0042 1186.2 39.9632L1261.8 12.4485C1283.89 4.40752 1308.11 4.40753 1330.2 12.4485L1440 52.4117" stroke="#213E4B"/>
<path d="M0 92.4117L109.798 52.4485C131.89 44.4075 156.11 44.4075 178.202 52.4485L253.798 79.9632C275.89 88.0042 300.11 88.0042 322.202 79.9632L397.798 52.4485C419.89 44.4075 444.11 44.4075 466.202 52.4485L541.798 79.9632C563.89 88.0042 588.11 88.0042 610.202 79.9632L685.798 52.4485C707.89 44.4075 732.11 44.4075 754.202 52.4485L829.798 79.9632C851.89 88.0042 876.11 88.0042 898.202 79.9632L973.798 52.4485C995.89 44.4075 1020.11 44.4075 1042.2 52.4485L1117.8 79.9632C1139.89 88.0042 1164.11 88.0042 1186.2 79.9632L1261.8 52.4485C1283.89 44.4075 1308.11 44.4075 1330.2 52.4485L1440 92.4117" stroke="#213E4B"/>
<path d="M0 132.412L109.798 92.4485C131.89 84.4075 156.11 84.4075 178.202 92.4485L253.798 119.963C275.89 128.004 300.11 128.004 322.202 119.963L397.798 92.4485C419.89 84.4075 444.11 84.4075 466.202 92.4485L541.798 119.963C563.89 128.004 588.11 128.004 610.202 119.963L685.798 92.4485C707.89 84.4075 732.11 84.4075 754.202 92.4485L829.798 119.963C851.89 128.004 876.11 128.004 898.202 119.963L973.798 92.4485C995.89 84.4075 1020.11 84.4075 1042.2 92.4485L1117.8 119.963C1139.89 128.004 1164.11 128.004 1186.2 119.963L1261.8 92.4485C1283.89 84.4075 1308.11 84.4075 1330.2 92.4485L1440 132.412" stroke="#213E4B"/>
<path d="M0 172.412L109.798 132.449C131.89 124.408 156.11 124.408 178.202 132.449L253.798 159.963C275.89 168.004 300.11 168.004 322.202 159.963L397.798 132.449C419.89 124.408 444.11 124.408 466.202 132.449L541.798 159.963C563.89 168.004 588.11 168.004 610.202 159.963L685.798 132.449C707.89 124.408 732.11 124.408 754.202 132.449L829.798 159.963C851.89 168.004 876.11 168.004 898.202 159.963L973.798 132.449C995.89 124.408 1020.11 124.408 1042.2 132.449L1117.8 159.963C1139.89 168.004 1164.11 168.004 1186.2 159.963L1261.8 132.449C1283.89 124.408 1308.11 124.408 1330.2 132.449L1440 172.412" stroke="#213E4B"/>
<path d="M0 212.412L109.798 172.449C131.89 164.408 156.11 164.408 178.202 172.449L253.798 199.963C275.89 208.004 300.11 208.004 322.202 199.963L397.798 172.449C419.89 164.408 444.11 164.408 466.202 172.449L541.798 199.963C563.89 208.004 588.11 208.004 610.202 199.963L685.798 172.449C707.89 164.408 732.11 164.408 754.202 172.449L829.798 199.963C851.89 208.004 876.11 208.004 898.202 199.963L973.798 172.449C995.89 164.408 1020.11 164.408 1042.2 172.449L1117.8 199.963C1139.89 208.004 1164.11 208.004 1186.2 199.963L1261.8 172.449C1283.89 164.408 1308.11 164.408 1330.2 172.449L1440 212.412" stroke="#213E4B"/>
<path d="M0 252.412L109.798 212.449C131.89 204.408 156.11 204.408 178.202 212.449L253.798 239.963C275.89 248.004 300.11 248.004 322.202 239.963L397.798 212.449C419.89 204.408 444.11 204.408 466.202 212.449L541.798 239.963C563.89 248.004 588.11 248.004 610.202 239.963L685.798 212.449C707.89 204.408 732.11 204.408 754.202 212.449L829.798 239.963C851.89 248.004 876.11 248.004 898.202 239.963L973.798 212.449C995.89 204.408 1020.11 204.408 1042.2 212.449L1117.8 239.963C1139.89 248.004 1164.11 248.004 1186.2 239.963L1261.8 212.449C1283.89 204.408 1308.11 204.408 1330.2 212.449L1440 252.412" stroke="#213E4B"/>
<path d="M0 292.412L109.798 252.449C131.89 244.408 156.11 244.408 178.202 252.449L253.798 279.963C275.89 288.004 300.11 288.004 322.202 279.963L397.798 252.449C419.89 244.408 444.11 244.408 466.202 252.449L541.798 279.963C563.89 288.004 588.11 288.004 610.202 279.963L685.798 252.449C707.89 244.408 732.11 244.408 754.202 252.449L829.798 279.963C851.89 288.004 876.11 288.004 898.202 279.963L973.798 252.449C995.89 244.408 1020.11 244.408 1042.2 252.449L1117.8 279.963C1139.89 288.004 1164.11 288.004 1186.2 279.963L1261.8 252.449C1283.89 244.408 1308.11 244.408 1330.2 252.449L1440 292.412" stroke="#213E4B"/>
<path d="M0 332.412L109.798 292.449C131.89 284.408 156.11 284.408 178.202 292.449L253.798 319.963C275.89 328.004 300.11 328.004 322.202 319.963L397.798 292.449C419.89 284.408 444.11 284.408 466.202 292.449L541.798 319.963C563.89 328.004 588.11 328.004 610.202 319.963L685.798 292.449C707.89 284.408 732.11 284.408 754.202 292.449L829.798 319.963C851.89 328.004 876.11 328.004 898.202 319.963L973.798 292.449C995.89 284.408 1020.11 284.408 1042.2 292.449L1117.8 319.963C1139.89 328.004 1164.11 328.004 1186.2 319.963L1261.8 292.449C1283.89 284.408 1308.11 284.408 1330.2 292.449L1440 332.412" stroke="#213E4B"/>
<path d="M0 372.412L109.798 332.449C131.89 324.408 156.11 324.408 178.202 332.449L253.798 359.963C275.89 368.004 300.11 368.004 322.202 359.963L397.798 332.449C419.89 324.408 444.11 324.408 466.202 332.449L541.798 359.963C563.89 368.004 588.11 368.004 610.202 359.963L685.798 332.449C707.89 324.408 732.11 324.408 754.202 332.449L829.798 359.963C851.89 368.004 876.11 368.004 898.202 359.963L973.798 332.449C995.89 324.408 1020.11 324.408 1042.2 332.449L1117.8 359.963C1139.89 368.004 1164.11 368.004 1186.2 359.963L1261.8 332.449C1283.89 324.408 1308.11 324.408 1330.2 332.449L1440 372.412" stroke="#213E4B"/>
<path d="M0 412.412L109.798 372.449C131.89 364.408 156.11 364.408 178.202 372.449L253.798 399.963C275.89 408.004 300.11 408.004 322.202 399.963L397.798 372.449C419.89 364.408 444.11 364.408 466.202 372.449L541.798 399.963C563.89 408.004 588.11 408.004 610.202 399.963L685.798 372.449C707.89 364.408 732.11 364.408 754.202 372.449L829.798 399.963C851.89 408.004 876.11 408.004 898.202 399.963L973.798 372.449C995.89 364.408 1020.11 364.408 1042.2 372.449L1117.8 399.963C1139.89 408.004 1164.11 408.004 1186.2 399.963L1261.8 372.449C1283.89 364.408 1308.11 364.408 1330.2 372.449L1440 412.412" stroke="#213E4B"/>
<path d="M0 452.412L109.798 412.449C131.89 404.408 156.11 404.408 178.202 412.449L253.798 439.963C275.89 448.004 300.11 448.004 322.202 439.963L397.798 412.449C419.89 404.408 444.11 404.408 466.202 412.449L541.798 439.963C563.89 448.004 588.11 448.004 610.202 439.963L685.798 412.449C707.89 404.408 732.11 404.408 754.202 412.449L829.798 439.963C851.89 448.004 876.11 448.004 898.202 439.963L973.798 412.449C995.89 404.408 1020.11 404.408 1042.2 412.449L1117.8 439.963C1139.89 448.004 1164.11 448.004 1186.2 439.963L1261.8 412.449C1283.89 404.408 1308.11 404.408 1330.2 412.449L1440 452.412" stroke="#213E4B"/>
<path d="M0 492.412L109.798 452.449C131.89 444.408 156.11 444.408 178.202 452.449L253.798 479.963C275.89 488.004 300.11 488.004 322.202 479.963L397.798 452.449C419.89 444.408 444.11 444.408 466.202 452.449L541.798 479.963C563.89 488.004 588.11 488.004 610.202 479.963L685.798 452.449C707.89 444.408 732.11 444.408 754.202 452.449L829.798 479.963C851.89 488.004 876.11 488.004 898.202 479.963L973.798 452.449C995.89 444.408 1020.11 444.408 1042.2 452.449L1117.8 479.963C1139.89 488.004 1164.11 488.004 1186.2 479.963L1261.8 452.449C1283.89 444.408 1308.11 444.408 1330.2 452.449L1440 492.412" stroke="#213E4B"/>
<path d="M0 532.412L109.798 492.449C131.89 484.408 156.11 484.408 178.202 492.449L253.798 519.963C275.89 528.004 300.11 528.004 322.202 519.963L397.798 492.449C419.89 484.408 444.11 484.408 466.202 492.449L541.798 519.963C563.89 528.004 588.11 528.004 610.202 519.963L685.798 492.449C707.89 484.408 732.11 484.408 754.202 492.449L829.798 519.963C851.89 528.004 876.11 528.004 898.202 519.963L973.798 492.449C995.89 484.408 1020.11 484.408 1042.2 492.449L1117.8 519.963C1139.89 528.004 1164.11 528.004 1186.2 519.963L1261.8 492.449C1283.89 484.408 1308.11 484.408 1330.2 492.449L1440 532.412" stroke="#213E4B"/>
<path d="M0 572.412L109.798 532.449C131.89 524.408 156.11 524.408 178.202 532.449L253.798 559.963C275.89 568.004 300.11 568.004 322.202 559.963L397.798 532.449C419.89 524.408 444.11 524.408 466.202 532.449L541.798 559.963C563.89 568.004 588.11 568.004 610.202 559.963L685.798 532.449C707.89 524.408 732.11 524.408 754.202 532.449L829.798 559.963C851.89 568.004 876.11 568.004 898.202 559.963L973.798 532.449C995.89 524.408 1020.11 524.408 1042.2 532.449L1117.8 559.963C1139.89 568.004 1164.11 568.004 1186.2 559.963L1261.8 532.449C1283.89 524.408 1308.11 524.408 1330.2 532.449L1440 572.412" stroke="#213E4B"/>
<path d="M0 612.412L109.798 572.449C131.89 564.408 156.11 564.408 178.202 572.449L253.798 599.963C275.89 608.004 300.11 608.004 322.202 599.963L397.798 572.449C419.89 564.408 444.11 564.408 466.202 572.449L541.798 599.963C563.89 608.004 588.11 608.004 610.202 599.963L685.798 572.449C707.89 564.408 732.11 564.408 754.202 572.449L829.798 599.963C851.89 608.004 876.11 608.004 898.202 599.963L973.798 572.449C995.89 564.408 1020.11 564.408 1042.2 572.449L1117.8 599.963C1139.89 608.004 1164.11 608.004 1186.2 599.963L1261.8 572.449C1283.89 564.408 1308.11 564.408 1330.2 572.449L1440 612.412" stroke="#213E4B"/>
<path d="M0 652.412L109.798 612.449C131.89 604.408 156.11 604.408 178.202 612.449L253.798 639.963C275.89 648.004 300.11 648.004 322.202 639.963L397.798 612.449C419.89 604.408 444.11 604.408 466.202 612.449L541.798 639.963C563.89 648.004 588.11 648.004 610.202 639.963L685.798 612.449C707.89 604.408 732.11 604.408 754.202 612.449L829.798 639.963C851.89 648.004 876.11 648.004 898.202 639.963L973.798 612.449C995.89 604.408 1020.11 604.408 1042.2 612.449L1117.8 639.963C1139.89 648.004 1164.11 648.004 1186.2 639.963L1261.8 612.449C1283.89 604.408 1308.11 604.408 1330.2 612.449L1440 652.412" stroke="#213E4B"/>
<path d="M0 692.412L109.798 652.449C131.89 644.408 156.11 644.408 178.202 652.449L253.798 679.963C275.89 688.004 300.11 688.004 322.202 679.963L397.798 652.449C419.89 644.408 444.11 644.408 466.202 652.449L541.798 679.963C563.89 688.004 588.11 688.004 610.202 679.963L685.798 652.449C707.89 644.408 732.11 644.408 754.202 652.449L829.798 679.963C851.89 688.004 876.11 688.004 898.202 679.963L973.798 652.449C995.89 644.408 1020.11 644.408 1042.2 652.449L1117.8 679.963C1139.89 688.004 1164.11 688.004 1186.2 679.963L1261.8 652.449C1283.89 644.408 1308.11 644.408 1330.2 652.449L1440 692.412" stroke="#213E4B"/>
<path d="M0 732.412L109.798 692.449C131.89 684.408 156.11 684.408 178.202 692.449L253.798 719.963C275.89 728.004 300.11 728.004 322.202 719.963L397.798 692.449C419.89 684.408 444.11 684.408 466.202 692.449L541.798 719.963C563.89 728.004 588.11 728.004 610.202 719.963L685.798 692.449C707.89 684.408 732.11 684.408 754.202 692.449L829.798 719.963C851.89 728.004 876.11 728.004 898.202 719.963L973.798 692.449C995.89 684.408 1020.11 684.408 1042.2 692.449L1117.8 719.963C1139.89 728.004 1164.11 728.004 1186.2 719.963L1261.8 692.449C1283.89 684.408 1308.11 684.408 1330.2 692.449L1440 732.412" stroke="#213E4B"/>
<path d="M0 772.412L109.798 732.449C131.89 724.408 156.11 724.408 178.202 732.449L253.798 759.963C275.89 768.004 300.11 768.004 322.202 759.963L397.798 732.449C419.89 724.408 444.11 724.408 466.202 732.449L541.798 759.963C563.89 768.004 588.11 768.004 610.202 759.963L685.798 732.449C707.89 724.408 732.11 724.408 754.202 732.449L829.798 759.963C851.89 768.004 876.11 768.004 898.202 759.963L973.798 732.449C995.89 724.408 1020.11 724.408 1042.2 732.449L1117.8 759.963C1139.89 768.004 1164.11 768.004 1186.2 759.963L1261.8 732.449C1283.89 724.408 1308.11 724.408 1330.2 732.449L1440 772.412" stroke="#213E4B"/>
<path d="M0 812.412L109.798 772.449C131.89 764.408 156.11 764.408 178.202 772.449L253.798 799.963C275.89 808.004 300.11 808.004 322.202 799.963L397.798 772.449C419.89 764.408 444.11 764.408 466.202 772.449L541.798 799.963C563.89 808.004 588.11 808.004 610.202 799.963L685.798 772.449C707.89 764.408 732.11 764.408 754.202 772.449L829.798 799.963C851.89 808.004 876.11 808.004 898.202 799.963L973.798 772.449C995.89 764.408 1020.11 764.408 1042.2 772.449L1117.8 799.963C1139.89 808.004 1164.11 808.004 1186.2 799.963L1261.8 772.449C1283.89 764.408 1308.11 764.408 1330.2 772.449L1440 812.412" stroke="#213E4B"/>
</svg>
