<svg width="50" height="50" viewBox="0 0 50 50" fill="none" xmlns="http://www.w3.org/2000/svg">
<path d="M17.4301 44.7917H32.601C33.2735 44.7917 33.6098 44.7917 33.8937 44.771C37.7602 44.489 40.835 41.4142 41.1171 37.5475C41.1379 37.2637 41.1379 36.9275 41.1379 36.2548C43.4567 36.2171 45.3167 34.3265 45.3167 32.0075V27.3071C45.3167 24.9992 43.4456 23.1283 41.1379 23.1283C41.1379 22.4481 41.1379 22.1081 41.1167 21.821C40.8319 17.9596 37.7615 14.8893 33.9 14.6045C33.6131 14.5833 33.2731 14.5833 32.5929 14.5833H26.3021V11.4583C27.5965 11.4583 28.6458 10.409 28.6458 9.11458V8.07292C28.6458 6.20321 27.1302 4.6875 25.2604 4.6875H24.7396C22.8698 4.6875 21.3542 6.20321 21.3542 8.07292V9.12273C21.3542 10.4126 22.3998 11.4583 23.6898 11.4583V14.5833H17.4383C16.7581 14.5833 16.4181 14.5833 16.1311 14.6045C12.2696 14.8893 9.19935 17.9596 8.91452 21.821C8.89335 22.1081 8.89335 22.4481 8.89335 23.1283C6.57052 23.1283 4.6875 25.0113 4.6875 27.3342V32.049C4.6875 34.3719 6.57052 36.2548 8.89335 36.2548C8.89335 36.9275 8.89335 37.2637 8.91404 37.5475C9.19608 41.4142 12.2709 44.489 16.1375 44.771C16.4213 44.7917 16.7576 44.7917 17.4301 44.7917Z" fill="#001A26" fill-opacity="0.25"/>
<path d="M31.25 34.8958H18.75M29.6875 24.4792C30.5504 24.4792 31.25 25.1787 31.25 26.0417C31.25 26.9046 30.5504 27.6042 29.6875 27.6042C28.8246 27.6042 28.125 26.9046 28.125 26.0417C28.125 25.1787 28.8246 24.4792 29.6875 24.4792ZM20.3125 24.4792C21.1754 24.4792 21.875 25.1787 21.875 26.0417C21.875 26.9046 21.1754 27.6042 20.3125 27.6042C19.4496 27.6042 18.75 26.9046 18.75 26.0417C18.75 25.1787 19.4496 24.4792 20.3125 24.4792Z" stroke="#001A26" stroke-width="3.125" stroke-linecap="round" stroke-linejoin="round"/>
</svg>
