<svg width="50" height="50" viewBox="0 0 50 50" fill="none" xmlns="http://www.w3.org/2000/svg">
<path d="M6.25 14.5833C11.3199 9.38248 17.8604 6.25 25 6.25C32.1396 6.25 38.6802 9.38248 43.75 14.5833M38.5417 22.36C34.6031 18.4178 29.9725 16.1458 25.0179 16.1458C20.0482 16.1458 15.4047 18.4316 11.4583 22.3958M17.1875 29.6875C19.3547 27.4002 22.0625 26.0417 25 26.0417C27.9375 26.0417 30.6452 27.4002 32.8125 29.6875" stroke="#001A26" stroke-opacity="0.25" stroke-width="3.125" stroke-linecap="round" stroke-linejoin="round"/>
<path d="M30.2083 40.1042C30.2083 42.9806 27.8764 45.3125 25 45.3125C22.1235 45.3125 19.7917 42.9806 19.7917 40.1042C19.7917 37.2277 22.1235 34.8958 25 34.8958C27.8764 34.8958 30.2083 37.2277 30.2083 40.1042Z" fill="#001A26"/>
</svg>
