<svg width="106" height="96" viewBox="0 0 106 96" fill="none" xmlns="http://www.w3.org/2000/svg">
<g clip-path="url(#clip0_3_71)">
<path d="M104.7 50.4C104.7 50.5 104.6 50.8 104.4 51.1C104.5 51.2 104.6 51.2 104.8 51.3C104.9 51.6 105.3 51.9 105.1 52.3C104.9 52.7 105.5 53 105 53.3C105.1 54 104.6 54.6 104.2 55.1C103.9 55.6 103.8 56.2 103.3 56.6C102.9 57 102.7 57.5 102.3 58C102 58 101.8 58 101.4 58C101.5 58.2 101.5 58.4 101.6 58.6C101.5 58.7 101.4 58.9 101.2 59.1C101.3 59.4 101.4 59.7 101.5 60.1C101.3 60.3 101.2 60.5 101 60.7C101.1 60.7 101.3 60.8 101.5 60.9C101.2 61.1 101 61.2 100.8 61.4C100.8 61.5 100.9 61.5 101 61.6C100.3 61.9 99.6 61.2 98.8 61.5C98.3 61.9 97.9 62.6 97.2 62.9C96.9 63 97.2 63.5 96.7 63.5C96.5 63.5 96.7 64.1 96.2 63.9C96 64.4 95.6 64.6 95.2 65C94.9 65.3 94.6 65.6 94.4 66C94.2 66.3 94 66.6 93.8 66.9C93.6 67.2 93.4 67.4 93.2 67.7C93.1 67.9 93.1 68.3 92.9 68.5C92.7 68.6 92.5 68.8 92.4 69.1C92.2 69 92 68.9 91.9 68.8C91.4 69 91 69.2 90.5 68.7V67.5C89.6 67 88.7 66.6 88.3 65.4C88.3 65 88.2 64.5 88.5 64.1C88 63.1 88.4 62.2 88.9 61.3C89.5 60.2 90.3 59.4 91.2 58.5C90.7 57.7 90.1 56.9 89.6 56.1C89.3 55.5 88.9 54.9 88.9 54.3C88.9 53.6 88.7 52.9 89.1 52.2C89.3 51.9 89.1 51.4 89.3 51C89.4 50.8 89.5 50.5 89.7 50.3C89.8 50.2 89.8 50 89.9 49.6C90.1 49.4 90.6 49.2 90.6 48.9C90.7 48.4 91.4 48.6 91.4 48C91.6 48.1 91.6 48.2 91.7 48.3C92 48.2 92.3 48.1 92.6 48C92.7 48.2 92.8 48.4 92.9 48.6C92.7 49 92.4 49.5 92.1 50C92.7 49.9 93.1 49.9 93.5 49.9C93.7 50.1 93.7 50.1 93.8 50.2C93.6 50.5 93.5 50.8 93.3 51.2C93.7 51.2 93.9 51.3 94.3 51.3C94.2 51.7 94.1 52.1 94 52.5C93.9 52.6 93.7 52.8 93.5 52.9C93.6 53 93.6 53.1 93.7 53.1C93.8 53 94 52.9 94.2 52.8C94.3 53 94.3 53.1 94.3 53.2C94 53.4 93.7 53.5 93.3 53.7C93.5 53.8 93.6 53.8 93.8 53.9C93.5 54.2 93.3 54.4 93 54.7C93.4 55 93.7 55.3 94.1 55.6C94.7 55.7 95.1 55.5 95.5 55.1C96.5 54.2 97.6 53.5 98.6 52.6C99.6 51.7 100.7 50.8 101.4 49.6C101.6 49.3 101.9 49.1 102.1 48.9H103.3C103.4 49 103.5 49.1 103.6 49.3C103.5 49.7 103.3 50.1 103.2 50.5C103.6 50.4 103.9 50.3 104.2 50.2C104.4 50 104.5 50.1 104.7 50.4Z" fill="black"/>
<path d="M33 74.2C32.6 74.3 32.3 74.4 31.9 74.5C32 74.3 32.1 74.2 32.1 74C31.8 73.6 31.5 73.3 31 73.3C31 73.1 30.9 73 30.9 72.9H30C29.9 72.8 29.8 72.8 29.8 72.7C29.7 72.3 29.6 71.8 29.4 71.4C29.1 71 29.2 70.5 29.2 70.1C29.2 69.8 29.3 69.4 29.4 69.1C29.7 67.9 30.2 66.7 30.8 65.6C31.2 64.9 31.6 64.3 32 63.6C32.4 63 33 62.4 33.4 61.8C33.3 61.7 33.1 61.6 33 61.5C31.5 60.6 30.2 59.5 29 58.3C28.4 57.7 28.4 56.9 28.3 56.2C28.2 55.9 28.3 55.6 28.3 55.3C28.6 54.7 29.2 54.7 29.8 54.4C30 54.8 30.2 55.1 30.4 55.5C30.4 55.5 30.5 55.4 30.6 55.3C30.7 55.4 30.8 55.5 30.9 55.6C31.1 56.3 31.7 56.6 32.3 56.9C33.5 57.5 34.7 58.1 36 58.7C36.3 58.4 36.6 57.9 37 57.7C37.4 57.5 37.4 56.8 38 56.9C37.9 56.8 37.8 56.7 37.8 56.6C38 56.5 38.2 56.3 38.5 56.1C38.6 55.9 38.7 55.6 38.8 55.3C39 55.3 39.2 55.3 39.4 55.3C39.3 55.2 39.2 55.1 39.1 55C39.6 54.9 39.6 54.4 39.9 54.2C40.2 53.9 40.4 53.5 40.7 53.1C40.8 53.1 40.8 53.2 41 53.3C41.1 53.2 41.1 53 41.2 52.9C41.3 53 41.4 53 41.5 53.1C41.6 52.3 42.1 51.7 42.6 51.1C43.1 50.5 43.5 49.8 44.3 49.4C44.4 49.5 44.5 49.6 44.7 49.7C44.4 50.3 44.1 50.9 43.4 51.2V52.1C43.6 52.1 43.7 52.1 43.7 52C43.8 51.8 43.9 51.5 44 51.4C44.5 51 45 50.6 45.5 50.1C45.5 50.5 45.6 50.8 45.6 51.1C45.4 51.2 45.3 51.2 45.2 51.3L45.3 51.4C45.6 51.3 45.8 51.3 46.2 51.2C46.3 51.4 46.4 51.6 46.5 51.8C46.4 51.9 46.4 52 46.3 52C46.3 52.3 46.7 52.6 46.4 53C46.3 52.9 46.2 52.8 46.2 52.8C46.2 52.9 46.1 52.9 46.1 53C46.1 53.1 46.2 53.3 46.3 53.4C46.2 54 45.8 54.4 45.4 54.7C45 55.1 44.6 55.4 44 55.8C44.2 55.9 44.4 56 44.6 56.1C44.5 56.3 44.4 56.5 44.3 56.7C44.3 56.8 44.4 56.8 44.5 57C44.3 57 44 57.1 43.8 57.1C43.9 57.3 43.9 57.5 44 57.7H43.2C43.1 58 42.9 58.2 42.8 58.5C42.9 58.6 43 58.7 43.1 58.8C42.9 58.8 42.7 58.9 42.4 58.9C42.5 59.1 42.5 59.3 42.6 59.5C42.4 59.5 42.2 59.6 41.9 59.6C42 59.8 42 60 42.2 60.3C41.9 60.2 41.7 60.1 41.4 60C41.3 60.2 41.2 60.5 41 60.7C41 60.8 41.1 60.9 41.1 60.9C41.2 60.9 41.3 60.9 41.4 61C41.7 61.2 41.8 61.6 42.2 61.8C42.6 62 42.7 62.4 43 62.7C43.2 63 43.4 63.2 43.3 63.6C43.3 63.7 43.4 63.9 43.5 64C43.4 64.1 43.4 64.2 43.2 64.4C42.9 64.4 42.7 64.8 42.1 64.6C41.1 64.2 40.1 63.9 39.1 63.8C39 63.8 39 63.7 38.9 63.6C38.6 63.9 38.3 64.3 37.9 64.7C37.9 64.7 37.9 64.9 37.9 65.1C37.7 65.1 37.5 65.2 37.2 65.2C37.4 65.5 37.6 65.7 37.8 66.1C37.5 66 37.4 66 37.1 65.9C37.1 66 37 66.1 36.9 66.2C37 66.6 36.9 66.8 36.5 67C36.4 67.5 36.3 67.9 36.1 68.3C35.9 68.4 35.8 68.4 35.7 68.5L36 69C35.7 69.3 35.3 69.5 35 69.8C34.8 70.1 34.7 70.5 34.5 70.9C34.5 70.9 34.6 71 34.7 71.2C34.5 71.5 34.2 71.7 34 72C34.1 72.1 34.2 72.2 34.3 72.3C34.1 72.5 34 72.7 33.8 72.9V73.6C33.4 73.7 33.2 74 33 74.2Z" fill="black"/>
<path d="M60.7 78.7C61.2 79.3 61.2 79.3 61.9 79C61.9 79.2 61.9 79.4 62 79.5C62 79.6 62.1 79.7 62.2 79.8C62.1 79.9 62 80 62 80C62.2 80.1 62.3 80.1 62.6 80.3C62.3 80.7 62.1 81 61.9 81.4C62.2 82 61.6 82.1 61.5 82.4C61.4 82.9 60.8 83 60.8 83.5C60.8 84.1 60.2 84.1 59.9 84.5C59.7 84.8 59.3 85 59.2 85.4C59.3 85.6 59.4 85.7 59.5 85.9C59.2 86.1 58.9 86.3 58.6 86.4L57.9 86.7C57.7 87 57.5 87.2 57.2 87.5V87.7C56.5 88.2 55.8 88.7 55 89.3C55.2 89.4 55.4 89.5 55.6 89.6C55.3 90 55 90.5 54.6 90.9C55.5 91.2 56.3 91.5 57.1 91.8C57 92 56.9 92.1 56.9 92.3C57.3 92.4 57.6 92.6 58 92.7V93.2C58.3 93.4 58.5 93.6 58.7 93.8C58.7 94.1 58.7 94.3 58.7 94.6L59.1 95L58.1 95.9C57.9 96.2 57.6 96.1 57.3 95.9C57.2 95.8 57.1 95.8 57 95.8C55.8 95.8 54.8 95.4 53.7 95C52.9 94.7 52.2 94.3 51.4 94C51.2 94.2 50.8 94.4 50.8 94.8C50.3 94.9 49.9 95 49.4 95.1C49.2 94.9 49 94.7 48.8 94.5C48.9 94.4 48.9 94.3 49.1 94.2C49 94 48.9 93.7 48.8 93.6C48.5 93.7 48.1 93.7 47.8 93.7C47.6 93.4 47.5 93.1 47.3 92.8C47.2 92.9 47.2 92.9 47.2 92.9C47 92.6 46.7 92.4 46.4 92C46.5 91.2 46 90.3 46.1 89.3C46.1 89.1 46 88.8 45.8 88.6C45.1 88 45.1 87.1 44.8 86.3C44.7 86 44.6 85.6 44.5 85.3C44.5 84.7 44.4 84.2 44.5 83.6C44.7 82.7 44.8 81.8 45.8 81.5C46.1 81.4 46.5 81.4 46.9 81.3V83.1C47.3 82.9 47.5 82.7 47.9 82.4C48 82.6 48 82.7 48.1 82.9C48.2 82.9 48.2 82.8 48.3 82.8V83.8C48.5 83.7 48.6 83.6 48.8 83.6C49.3 84 49.3 84.6 49.2 85.1C49.4 85.2 49.5 85.2 49.7 85.3C49.6 85.5 49.5 85.8 49.4 86.1C49.5 86.1 49.6 86.1 49.6 86.1C49.7 86 49.7 85.9 49.8 85.9C50.8 85.5 51.3 84.5 52.2 84.2C52.4 83.5 53.1 83.3 53.6 82.9C54 82.4 54.7 82.1 55.2 81.7C55.7 81.3 56 80.6 56.7 80.4C57.1 79.6 57.8 79 58.6 78.5C58.6 77.9 59.3 77.9 59.3 77.3H60.3C60.4 77.4 60.5 77.5 60.6 77.6C60.1 77.8 59.9 78.3 59.6 78.8C60.3 78.9 60.7 78.1 61.3 78.5C61.1 78.5 61 78.6 60.7 78.7Z" fill="black"/>
<path d="M58.1 66.7C58 66.2 58.8 66.1 58.4 65.6C58.3 65.7 58.2 65.8 58.2 65.8L58.1 65.7C58 65.1 58 64.6 58.4 64.2C58.8 63.7 59.3 63.2 59.7 62.7C59.8 62.5 59.9 62.3 60 62.1C59.8 61.6 59.5 61 59.3 60.5C59 59.9 59 59.3 58.8 58.7C58.6 58.4 59 57.8 59 57.5C58.9 57.1 58.6 56.7 59 56.3C59 55.2 59.8 54.5 60.4 53.7H62.3C62.4 53.8 62.5 53.9 62.7 54.1C62.4 54.5 62.1 54.8 61.8 55.2C61.8 55.3 61.9 55.5 62 55.7C62.1 55.7 62.3 55.8 62.4 55.7C62.7 55.4 63.1 55.5 63.4 55.5C63.5 55.8 63.6 56 63.7 56.2C63.5 56.4 63.4 56.6 63.1 57C63.5 57.1 63.8 57.1 64.1 57.1V58.2C64.9 58.2 64.9 57.3 65.6 57.3C65.9 56.9 66.3 56.5 66.7 56.2C67.1 55.8 67.6 55.4 68 54.9C68.4 54.5 68.8 54.1 69.1 53.7C69.5 53.3 69.8 52.8 70 52.5C70.5 52.3 70.7 52.2 71.1 52.1C71.2 52.3 71.4 52.4 71.4 52.6C71.4 52.7 71.3 52.9 71.2 53.1C71.1 53.3 71 53.4 71 53.7C71.3 53.6 71.7 53.4 72 53.3C72.2 53.7 72.4 54.1 72.7 54.7C72.7 54.7 72.7 54.9 72.7 55.1C72.7 55.3 72.8 55.4 72.9 55.6C72.9 55.7 72.8 55.8 72.7 56C72.8 56.1 72.9 56.2 73 56.3C72.3 57.3 71.8 58.4 71 59.4C70.4 60.3 70.5 60.3 70 60.6C70.1 60.7 70.1 60.8 70.2 60.8C69.3 61.8 68.4 62.8 67.5 63.8V64.2C68.2 64.7 68.9 65.1 69.6 65.5C69.5 65.7 69.4 65.8 69.3 66C69.6 66.2 69.8 66.7 70.3 66.5C70.4 66.7 70.5 66.9 70.6 67.1C70.5 67.2 70.5 67.3 70.3 67.5C70.6 67.8 70.8 68 71.1 68.3C71 68.6 70.9 68.8 70.8 69.1C70.9 69.2 71 69.4 71 69.5C71 69.6 70.9 69.7 70.9 69.7C70.8 69.8 70.6 69.8 70.5 69.9C70 70.4 69.9 70.5 69.3 70.3C68.5 70 67.7 69.9 66.9 69.5C65.9 69 65.1 68.3 64.1 67.6C63.7 67.9 63.2 68.3 62.8 68.8C62.4 69.3 61.8 69.6 61 69.9C61.1 69.7 61.2 69.6 61.3 69.4C60.8 69.5 60.4 69.6 60 69.7L59.9 69.6C60.2 69.4 60.4 69.2 60.7 69L60.3 68.6H59.5C59.4 68.3 59.3 68.1 59.1 67.7H58.2C58.3 67.2 58.2 66.9 58.1 66.7Z" fill="black"/>
<path d="M63 44.6C62.6 44.7 62.3 44.8 61.8 44.9C61.3 44.5 60.7 44.1 60.1 43.7C59.4 43.2 58.7 42.5 57.9 42.2C57.7 42.1 57.5 42.1 57.2 42C56.9 41.5 56.8 40.6 55.9 40.7C55.5 40.3 55.4 39.6 54.8 39.6C54.6 39.2 54.5 38.8 54.2 38.6C53 37.5 52.1 36.1 51.3 34.4C51.2 33.9 51.2 33.2 51.1 32.5C50.9 31.4 51.5 30.5 52.4 29.9C52.7 29.7 52.8 29.4 53.2 29.4C53.5 29.4 53.8 29.3 54.2 29.2C54.3 29.3 54.5 29.4 54.7 29.6C54.4 30.1 53.8 30.5 53.7 31.2C54.4 31.4 54.7 30.6 55.4 30.6C55.5 30.7 55.6 30.8 55.8 30.9C55.5 31.3 55.4 31.5 55.1 32C55.6 31.8 55.9 31.8 56.1 31.7C56.4 31.3 56.9 31.1 57.3 30.6C57.6 30.2 58 29.8 58.5 29.5C59.2 29.1 59.7 28.4 60.3 27.9C61.2 27.2 62.1 26.3 63.1 25.7C63.5 25.5 63.8 25 64.1 24.7C64.4 24.4 64.9 24.2 65 23.8H66.5V24.8C66.5 24.8 66.3 25 66.1 25.2C66.3 25.2 66.5 25.1 66.7 25.1C66.9 25.1 67.1 25 67.4 24.9C67.4 25.6 67.4 26.3 67.9 26.7C67.8 26.8 67.7 26.9 67.6 27.1C67.8 27.2 67.9 27.3 68.3 27.5C67.9 27.6 67.8 27.6 67.7 27.7C67.8 27.8 67.8 28 67.9 28.1C67.9 28.2 67.9 28.4 67.9 28.5C67.5 29.1 67.1 29.6 66.6 30.3C66.5 30.3 66.3 30.3 66.1 30.4C66.2 30.5 66.2 30.6 66.3 30.7C66.2 30.9 66.2 31 66.1 31.2C65.1 31.2 65.1 32.2 64.5 32.6C64.6 32.8 64.7 32.9 64.7 32.9C64.3 33.3 63.9 33.7 63.5 34.1C63.3 34.3 63.1 34.5 62.9 34.7C62.8 34.7 62.8 34.6 62.7 34.6V35C62.6 34.9 62.5 34.8 62.3 34.7C62.3 35 62.4 35.1 62.4 35.4C62.1 35.8 61.8 36.2 61.4 36.7C61.2 36.6 61.1 36.5 61 36.4C60.6 36.9 60.2 37.4 59.8 37.9C60 38 60.1 38.1 60.3 38.2C60.1 38.5 59.9 38.7 59.8 38.9C59.8 39 59.8 39.1 59.9 39.1C60.6 39.9 61.4 40.6 61.9 41.4C62.6 42.3 63.4 43.3 63 44.6Z" fill="black"/>
<path d="M78.7 28.3C78.8 28.2 78.8 28.2 78.9 28.1C78.9 28 78.8 28 78.8 27.9C78.5 27.6 78.1 27.4 77.9 27.1C77.7 26.8 77.4 26.6 77.2 26.4C76.9 26.1 76.5 25.6 76.5 25.2C76.5 24.5 76.4 23.8 76.6 23C76.9 21.7 77.6 20.7 78.5 19.8C79.6 18.7 80.8 17.5 82 16.3C81.5 15.9 81.5 15.2 80.8 15C80.5 14.4 80.2 13.8 79.9 13.2C79.6 12.7 79.7 12.1 79.7 11.5C79.7 11.1 79.7 10.7 79.7 10.3C80.1 9.8 80.5 9.3 80.8 8.9H82.7C82.4 9.4 82.1 9.9 81.9 10.3C82.6 10.8 82.9 9.7 83.5 10C83.9 10.5 83.2 10.8 82.9 11.3C83.3 11.2 83.6 11.1 83.9 11.1C84.1 11.6 84 12.1 83.7 12.6C83.9 12.7 84 12.7 84.2 12.8C84.3 12.9 84.1 13 84 13.2C84.2 13.5 84.4 13.8 84.7 14.2C86.6 12.2 88.9 10.9 90.4 8.7H91.5C91.4 9.1 91.3 9.4 91.2 9.8C91.5 9.7 91.8 9.6 92.1 9.5V10.4C92.3 10.4 92.4 10.5 92.5 10.5C92.5 10.6 92.6 10.6 92.6 10.7C92.6 10.8 92.6 10.9 92.6 11C92.8 12.2 92.2 13.1 91.6 14C90.9 15 90.2 15.8 89.4 16.8C90 17.5 90.8 17.8 91.6 18.4C91.6 18.5 91.6 18.7 91.7 18.9C91.9 19.2 92.2 19.4 92.3 19.7C92.5 20.4 93 21.1 92.7 22C92.6 22 92.4 22.1 92.2 22.2C92 22.3 91.8 22.4 91.6 22.4C91.3 22.1 90.6 22.2 90.7 21.6C90 21.4 89.4 21.2 88.8 21.1C88.7 20.9 88.5 20.7 88.4 20.4H87.2C87.2 20.3 87.1 20.2 87.1 20C86.6 19.6 86.3 20.1 86 20.1C85.6 20.5 85.3 20.9 85 21.2C84.9 21.1 84.8 21.1 84.7 21C84.6 21.2 84.4 21.4 84.2 21.6C84.2 21.6 84.2 21.6 84.3 21.8C83.8 21.9 83.7 22.5 83.5 22.9C83.3 22.8 83.2 22.7 83 22.6C83 22.8 82.9 23 82.9 23.2C82.8 23.2 82.7 23.2 82.5 23.3C82.5 23.8 82.4 24.3 81.7 24.2C81.5 24.5 81.1 24.8 81.1 25C81.2 25.7 80.6 26 80.4 26.6C80.3 27.3 80.3 27.3 80.5 27.7C80 28.1 79.5 28.4 78.8 28.5C78.9 28.5 78.8 28.4 78.7 28.3Z" fill="black"/>
<path d="M12.6 15.5C12.3 15.5 12.1 15.6 11.9 15.6C12 15.7 12.1 15.8 12.2 16C11.9 16.5 11.4 16.8 11 17.3L11.2 17.5C10.9 17.7 10.6 18 10.4 18.1C10.3 18.5 10.6 18.9 10.1 19.1C10.5 19.4 10.9 19.6 11.3 19.9C12.5 20.7 13.8 21.4 14.7 22.5C15.3 23.1 15.8 23.7 15.8 24.6C15.8 24.8 16 24.9 16.1 25.1C15.8 25.3 15.4 25.5 15 25.8C12.7 24.5 10.4 23.3 8.3 21.6C8.1 21.7 7.8 21.8 7.8 21.9C7.6 22.6 7.1 23.1 6.6 23.5C6.5 23.6 6.6 23.7 6.5 23.8C6.3 23.8 6.1 23.8 5.8 23.9C6 24.1 6 24.2 6.1 24.5C5.7 24.9 5.3 25.4 5.2 26.1C5.1 26.5 4.7 26.8 4.4 27.3V29.8C4.2 29.8 4 29.8 3.8 29.8C3.8 29.9 3.7 30.1 3.7 30.2H2.8C2.7 29.8 2.6 29.5 2.4 29.1C2.2 29.2 2 29.3 1.7 29.4C1.6 29.2 1.6 29.1 1.6 29C1.5 29 1.5 28.9 1.4 28.9C0.899999 29 0.599999 28.6 0.499999 28.3C0.299999 27.3 -0.400001 26.2 0.199999 25.1C0.199999 24 0.899999 23.1 1.3 22.2C1.4 21.9 2 21.9 1.8 21.4C1.7 21.2 2.1 20.8 2.3 20.5C2.5 20.2 2.7 20 2.9 19.7C3.1 19.4 3.4 19.2 3.7 18.9C3.9 18.7 4.1 18.4 4.3 18.1C2.9 17.1 2.1 15.6 1.1 14.2C0.799999 12.9 0.299999 11.6 0.499999 10C0.799999 9.6 1.2 9.2 1.7 8.7C2.2 8.8 2.7 8.5 3.2 9C2.9 9.4 2.6 9.8 2.3 10.2C2.4 10.3 2.5 10.4 2.5 10.4C3.1 10.6 3.4 9.7 4 9.9C4.1 10.1 4.2 10.3 4.3 10.5C4.1 10.6 3.9 10.8 3.6 10.9C3.8 11 3.9 11.1 4 11.2C4.3 10.9 4.6 10.9 5 11.3C5 11.6 5.2 11.9 4.8 12.2C5 12.3 5.1 12.3 5.3 12.5C5.1 12.7 5 13 4.8 13.2C5 13.3 5.1 13.3 5.4 13.4C5.1 13.5 5 13.5 4.8 13.6C4.8 13.8 4.8 14 4.9 14.2C5.3 14.8 5.8 15.3 6.3 16C6.6 15.7 6.8 15.6 7 15.4C8.2 14.2 9.3 12.9 10.8 12C10.8 11.6 11.2 11.6 11.4 11.4C11.6 11.1 11.9 10.9 12 10.7H12.8C12.5 11.2 11.9 11.5 12.1 12.2C12.6 11.9 13.1 11.6 13.7 11.3C13.6 11.6 13.6 11.9 13.6 12.2C13.8 12.3 14.1 12.5 14.4 12.6C14.3 12.8 14.2 12.9 14.2 13.1C14.3 13.1 14.4 13.1 14.5 13.2C14.5 13.2 14.6 13.3 14.5 13.3C14.2 13.7 13.9 14 13.7 14.4C13.4 14.8 12.9 15.1 12.6 15.5Z" fill="black"/>
<path d="M33.3 27C34.2 25.9 35 25 35.7 24C36.4 23.1 37 22.2 37.6 21.2C37.5 21.1 37.5 21 37.3 20.9C37.5 20.7 37.7 20.5 37.9 20.2H38.6C38.9 20.5 39.1 20.9 39.4 21C39.8 21.1 39.8 21.4 40 21.7C40.5 22.5 40.9 23.3 40.5 24.4C40.2 25 40 25.7 39.7 26.3C39.6 26.5 39.6 26.7 39.5 27L38.9 27.6V28.3C38.5 29.1 38.1 29.8 37.7 30.5C38.3 30.9 38.8 31.3 39.3 31.6C40.4 32.3 41.2 33.1 41.8 34.3C41.9 34.6 42 34.8 42.1 35.2C42.1 35.3 42 35.5 41.9 35.7C41.7 35.8 41.4 35.9 41.2 36C40.7 35.8 40.2 35.7 39.8 35.5C39.4 35.3 38.9 35.1 38.5 34.9C38.4 34.2 37.7 34.5 37.4 34.1C37.1 33.7 36.6 33.6 36.1 33.3C34.6 34.8 33.3 36.4 32.1 38.2C32 38.3 32 38.5 32 38.7C31.5 39.1 31 39 30.5 38.7V38.3C29.8 37.9 29.2 37.5 28.5 37.1C28.2 36.7 28.3 36.1 28.1 35.6C27.9 35.1 28.1 34.6 28 34.2C28.7 32.5 29.6 31.1 30.9 29.8V29C30.2 28.5 29.7 27.7 29.3 26.9C29.1 26.6 29.1 26.3 29.1 26C29 25.4 28.7 24.8 28.8 24.1C28.8 22.8 29.6 21.9 30.8 21.5C31.6 21.2 32.3 21.4 33.1 21.3C32.7 22.2 31.6 22.1 31 22.9C32.1 22.9 32.7 21.8 33.8 22C33.8 22.3 33.7 22.5 33.7 22.8C33.9 22.9 34.2 23 34.5 23.1V24.5C34.2 25 33.9 25.5 33.6 26C33.2 26.3 33.3 26.6 33.3 27Z" fill="black"/>
<path d="M52.3 13C51.9 13.5 51.5 14 51.1 14.6V16C50.7 16.2 50.3 16.3 49.9 16.5C49.4 16 49.2 15.3 49 14.7C48.8 14.8 48.6 14.9 48.3 15C48.1 14.7 47.8 14.4 47.6 14C47.2 13 47.2 11.9 47.2 10.8C47.4 10.4 47.6 10 47.8 9.50001C47.5 9.50001 47.2 9.50001 47.1 9.40001C46.4 8.70001 45.6 7.90001 45 7.10001C44.6 6.70001 44.3 6.20001 44.1 5.70001C43.9 4.90001 43.9 4.10001 43.8 3.30001C44.1 2.80001 44.4 2.30001 44.9 1.90001C45.3 1.50001 45.9 1.40001 46.5 1.10001C46.6 1.30001 46.8 1.40001 46.9 1.60001C46.8 1.70001 45.7 2.70001 45.7 2.70001C45.8 2.80001 45.9 2.90001 46 3.00001C46.5 2.60001 47 2.20001 47.8 2.50001C47.6 2.80001 47.4 3.00001 47.2 3.40001C47.6 3.30001 47.8 3.20001 48.1 3.10001C48.2 3.30001 48.4 3.50001 48.6 3.80001C48.3 4.10001 48 4.40001 47.7 4.70001C47.9 4.70001 48 4.80001 48.2 4.80001C47.9 5.20001 48.1 5.80001 47.4 6.00001C48 6.50001 48.7 7.00001 49.5 7.50001C52 5.40001 54.4 3.40001 56.9 1.40001H58C57.8 1.80001 57.7 2.10001 57.5 2.40001C57.8 2.60001 58.1 2.40001 58.4 2.20001C59.2 3.00001 59.4 4.00001 59.3 5.00001C59 5.40001 58.6 5.90001 58.2 6.40001C58.2 6.40001 58.3 6.50001 58.4 6.60001C58.2 6.60001 58 6.70001 57.8 6.70001C57.9 6.80001 58 6.90001 58 6.90001H57.6C56.8 8.40001 55.5 9.30001 54.6 10.7C55.9 11.4 57.4 12 58.8 12.8C58.8 13 58.9 13.2 58.9 13.5C59.1 13.3 59.2 13.2 59.3 13.1C59.9 13.2 59.8 13.8 60.3 14.1C60.7 14.3 61 14.9 61.3 15.3V16.6C61.2 16.7 61.1 16.8 60.9 17C59.7 16.9 58.8 16.2 57.7 15.7L57.6 15.8C56.9 15.6 56.4 14.8 55.6 14.9C55.2 14.4 54.5 14.3 54 14C53.5 13.7 53 13.3 52.3 13Z" fill="black"/>
<path d="M85.2 31C85.4 31.1 85.6 31.2 85.9 31.4C85.8 31.8 85.8 32.1 85.7 32.6C85.9 32.9 86 33.4 86.6 33.6C86.9 33.2 87 32.8 87.5 32.6C87.8 32.5 88.1 32 88.3 31.6C88.6 31.2 89 31 89.2 30.5C89.4 30.1 89.8 29.9 90.1 29.5C90.4 29.1 90.6 28.7 90.8 28.3H92.1C92.2 28.7 92.3 29 91.9 29.4C92.3 29.4 92.5 29.4 92.8 29.4C92.9 29.9 93 30.4 93.1 30.9C92.9 31 92.8 31 92.6 31.1C92.6 31.2 92.6 31.3 92.7 31.4C93 32.2 93 32.4 92.4 33C92.1 33.3 92 33.6 92.1 33.9C92.3 34.3 91.8 34.1 92 34.5C91.8 34.3 91.7 34.2 91.5 34.1V34.7C91.3 34.7 91.1 34.8 90.8 34.8V35.4C90.5 35.7 90.3 35.9 90.1 36.1C90.5 36.5 90.9 36.8 91.2 37.1V38C91.4 38.2 91.7 38.5 92 38.8C91.9 38.9 91.9 39 91.8 39.2C91.9 39.4 92.1 39.7 92.3 40.1C92.1 40.6 91.8 41.1 91.6 41.5H90.7C89.6 40.9 88.5 40.3 87.5 39.7C87.3 40 87.2 40.2 87 40.4C86.8 40.3 86.7 40.2 86.4 40.1V41.2C86.1 41.1 85.8 41 85.4 40.8C85.6 41.1 85.6 41.1 85.7 41.3C85.5 41.5 85.3 41.7 84.9 42C84.8 41.6 84.8 41.3 84.7 41C84.9 40.9 85 40.9 85.2 40.8C85.2 40.7 85.2 40.6 85.3 40.5C85.2 40.5 85 40.4 84.9 40.4C84.9 40.2 85 40 85.1 39.7C84.9 39.9 84.8 40 84.8 40C84.3 39.9 83.9 39.8 83.4 39.7C83.3 39.6 83.2 39.4 83.1 39.2C83.2 38.9 83.3 38.5 83.4 38.1C83.6 38.1 83.9 38.2 84.2 38.2V38.1C83.9 38 83.6 37.8 83.4 37.7C83.6 37.4 83.7 37.1 83.9 36.8C83.2 35.5 82.3 34.3 81.9 33C81.6 32.1 82 31.1 82.1 30.2C82.2 29.5 82.8 29 83.5 28.6C83.6 28.5 83.7 28.5 83.8 28.4H84.9C85.1 28.6 85.2 28.7 85.3 28.8C85.1 29 84.9 29.2 84.7 29.4V30.1C84.9 30 85.2 30 85.5 29.9C85.6 30 85.8 30.2 86 30.3C85.6 30.6 85.4 30.8 85.2 31Z" fill="black"/>
<path d="M17.3 42.6C17.4 42.7 17.5 42.8 17.7 43C17 43.6 16.3 44.2 15.6 44.8V44.9C15.7 44.9 15.9 44.9 16 44.8C16.2 44.6 16.4 44.4 16.6 44.4C17.1 44.1 17.6 43.9 18 43.6C18.4 43.9 18.1 44.2 17.9 44.6C18.2 44.5 18.3 44.4 18.5 44.4C18.6 44.5 18.7 44.6 18.8 44.7C18.8 45.2 18.8 45.6 18.8 46.1C18.7 46.2 18.5 46.4 18.4 46.5C18.4 46.6 18.4 46.6 18.5 46.7C18.8 46.9 19 47.1 19.3 47.3C19.6 47.5 20 47.5 20 48C20 48.1 20.1 48.1 20.2 48.2C20.4 48.4 20.7 48.5 20.9 48.7C21.1 48.9 21.2 49.2 21.4 49.5C21.4 49.7 21.4 50 21.4 50.3C21.2 50.5 21 50.7 20.9 50.8C19.5 50.3 18.1 49.8 16.7 49.3C16.4 49.5 16.1 49.6 15.7 49.8C15.7 49.8 15.7 49.8 15.7 49.7C15.4 50 15.1 50.3 14.7 50.7C14.7 50.8 14.7 51 14.7 51.2C14.1 51.8 13.5 52.4 13 52.9C12.7 53.7 12.9 54.5 11.8 54.6C11.6 54.3 10.8 54.2 11 53.4C10.8 53.3 10.5 53.3 10.2 53.2C10.1 53.2 10 53.3 9.9 53.4C9.6 53.1 9.4 52.8 9 52.4C8.9 51.7 8.8 50.8 8.7 49.8C9.6 48.8 10.6 47.8 11.5 46.7C11.1 46.5 10.7 46.3 10.4 46C10 45.7 9.8 45.4 9.4 45C9.5 44.7 9.6 44.4 9.7 44.1C9.5 44 9.4 44 9.2 43.9V43.1C9.3 43 9.3 43 9.4 42.9C9.7 42.8 10.1 42.8 10.5 42.7C11.6 43.3 12.8 44 14 44.7C15.4 44 16.1 43 17.3 42.6Z" fill="black"/>
</g>
<defs>
<clipPath id="clip0_3_71">
<rect width="106" height="96" fill="white"/>
</clipPath>
</defs>
</svg>
