<svg width="719" height="258" viewBox="0 0 719 258" fill="none" xmlns="http://www.w3.org/2000/svg">
<g clip-path="url(#clip0_309_3454)">
<path d="M299.86 94.23C299.86 68.67 317.49 57.3 357.02 57.3C396.55 57.3 414.18 68.67 414.18 94.23C414.18 119.79 396.55 131.16 357.02 131.16C317.49 131.16 299.86 119.79 299.86 94.23ZM397.28 94.23C397.28 78.27 387.58 71.7 357.02 71.7C326.46 71.7 316.55 78.27 316.55 94.23C316.55 110.19 326.46 116.76 357.02 116.76C387.58 116.76 397.28 110.19 397.28 94.23Z" fill="white"/>
<path d="M420.03 149.09V77.12H433.7L434.95 85.15C445.59 80.35 458.63 76.08 472.08 76.08C491.79 76.08 503.37 83.8 503.37 102.89C503.37 123.54 488.25 130.85 465.3 130.85C454.76 130.85 444.33 129.6 435.68 128.03V149.1H420.03V149.09ZM435.67 95.38V116.14C444.85 117.18 456.32 118.23 466.13 118.23C480.21 118.23 487.83 114.16 487.83 103.21C487.83 93.2 482.51 89.02 469.26 89.02C459.45 89.02 447.56 91.63 435.67 95.38Z" fill="white"/>
<path d="M524.76 129.8H509.22V51.57H524.76V129.8Z" fill="white"/>
<path d="M531.64 77.12H547.18V97.56C547.18 107.78 552.6 111.75 568.56 111.75C578.78 111.75 589.21 110.19 599.85 107.68V77.12H615.5V119.37C615.5 142.53 602.46 150.04 573.05 150.04C560.01 150.04 545.51 148.06 535.39 145.24L538.31 133.14C549.68 136.06 561.47 137.83 573.98 137.83C594.22 137.83 601.2 133.24 600.58 120.31L600.27 118.33C589.94 121.88 577.43 124.69 564.91 124.69C540.92 124.69 531.64 117.08 531.64 99.86V77.12Z" fill="white"/>
<path d="M617.6 129.8L654.73 102.99L618.01 77.12H640.23L665.89 95.16L691.34 77.12H713.25L676.85 102.99L714.19 129.8H691.97L665.68 110.92L639.5 129.8H617.6Z" fill="white"/>
<path d="M297.21 169.63V166.04H339.44V169.63H320.39V197.42H316.25V169.63H297.2H297.21Z" fill="white"/>
<path d="M372.24 193.09L373.02 196.13C369.34 197.1 363.13 197.92 357.24 197.92C344.96 197.92 338.65 194.93 338.65 185.96C338.65 176.99 345.37 174 356.45 174C366.62 174 373.98 176.62 373.98 184.95C373.98 185.64 373.89 186.65 373.8 187.07H342.47C343.02 193.24 347.94 194.71 357.51 194.71C364.09 194.71 370.02 193.61 372.23 193.1L372.24 193.09ZM342.48 184.67H370.18C369.81 179.47 366.55 176.85 356.33 176.85C347.54 176.85 342.99 178.78 342.48 184.67Z" fill="white"/>
<path d="M398.83 174C404.53 174 409.55 174.74 413.09 175.56L412.31 178.83C409.27 178.14 404.95 177.4 398.37 177.4C387.1 177.4 382.73 179.42 382.73 185.91C382.73 192.4 387.1 194.51 398.37 194.51C404.95 194.51 409.27 193.77 412.31 193.08L413.09 196.3C409.55 197.17 404.85 197.86 398.83 197.86C384.71 197.86 378.82 194.5 378.82 185.9C378.82 177.3 384.71 173.98 398.83 173.98V174Z" fill="white"/>
<path d="M418.88 162.91H422.79V177.72C427.67 175.65 433.51 173.99 439.63 173.99C447.82 173.99 452.74 177.12 452.74 185.08V197.41H448.83V185.4C448.83 180.34 445.98 177.35 438.34 177.35C434.11 177.35 428.63 178.5 422.79 180.62V197.41H418.88V162.91Z" fill="white"/>
<path d="M459.09 174.51H462.45L462.86 177.91C467.78 175.79 473.63 174 479.79 174C488.02 174 492.95 177.13 492.95 185.09V197.42H489.04V185.41C489.04 180.35 486.19 177.36 478.55 177.36C474.32 177.36 468.84 178.51 463 180.63V197.42H459.09V174.51Z" fill="white"/>
<path d="M517.65 174C530.9 174 536.97 177.63 536.97 185.96C536.97 194.29 530.9 197.92 517.65 197.92C504.4 197.92 498.37 194.24 498.37 185.96C498.37 177.68 504.44 174 517.65 174ZM517.65 194.52C528.92 194.52 533.06 192.08 533.06 185.96C533.06 179.84 528.92 177.36 517.65 177.36C506.38 177.36 502.28 179.89 502.28 185.96C502.28 192.03 506.42 194.52 517.65 194.52Z" fill="white"/>
<path d="M546.62 197.42H542.71V162.92H546.62V197.42Z" fill="white"/>
<path d="M571.65 174C584.9 174 590.97 177.63 590.97 185.96C590.97 194.29 584.9 197.92 571.65 197.92C558.4 197.92 552.37 194.24 552.37 185.96C552.37 177.68 558.44 174 571.65 174ZM571.65 194.52C582.92 194.52 587.06 192.08 587.06 185.96C587.06 179.84 582.92 177.36 571.65 177.36C560.38 177.36 556.28 179.89 556.28 185.96C556.28 192.03 560.42 194.52 571.65 194.52Z" fill="white"/>
<path d="M630.9 194.06C630.9 203.12 625.52 206.25 612.59 206.25C607.99 206.25 601.32 205.51 596.67 204.13L597.55 201C601.87 202.2 607.16 203.07 612.78 203.07C623.64 203.07 627.27 200.68 627.13 194.24L627.04 192.49C622.16 194.74 616.04 196.54 609.74 196.54C600.45 196.54 595.8 193.14 595.8 185.41C595.8 176.9 602.66 174.05 613.05 174.05C619.81 174.05 626.21 174.88 630.9 175.71V194.07V194.06ZM610.06 193.41C615.95 193.41 621.65 191.85 626.99 189.73V178.41C622.9 177.81 617.37 177.31 612.5 177.31C604.59 177.31 599.71 179.43 599.71 185.36C599.71 191.29 602.93 193.41 610.06 193.41Z" fill="white"/>
<path d="M641.15 171.06H637.24V165.26H641.15V171.06ZM637.24 174.51H641.15V197.42H637.24V174.51Z" fill="white"/>
<path d="M680.49 193.09L681.27 196.13C677.59 197.1 671.38 197.92 665.49 197.92C653.21 197.92 646.9 194.93 646.9 185.96C646.9 176.99 653.62 174 664.7 174C674.87 174 682.23 176.62 682.23 184.95C682.23 185.64 682.14 186.65 682.05 187.07H650.72C651.27 193.24 656.19 194.71 665.76 194.71C672.34 194.71 678.27 193.61 680.48 193.1L680.49 193.09ZM650.72 184.67H678.42C678.05 179.47 674.79 176.85 664.57 176.85C655.78 176.85 651.23 178.78 650.72 184.67Z" fill="white"/>
<path d="M704.13 197.92C697.83 197.92 692.26 197.28 687.52 196.4L688.21 193.64C693.27 194.51 698.47 195.07 703.99 195.07C712.73 195.07 715.31 194.52 715.31 191.53C715.31 188.54 712.69 188.03 706.57 187.57L696.45 186.93C690.52 186.52 687.06 185.32 687.06 180.44C687.06 175.15 692.35 174 703.07 174C706.8 174 712.87 174.46 717.19 175.15L716.59 177.91C711.34 177.17 706.93 176.81 702.33 176.81C693.73 176.81 690.74 177.45 690.74 180.44C690.74 183.43 693.22 183.66 696.86 183.94L707.62 184.68C715.26 185.19 718.98 186.61 718.98 191.58C718.98 196.55 715.21 197.93 704.12 197.93L704.13 197.92Z" fill="white"/>
<path d="M141.83 257.8C114.73 257.8 89.39 233.41 69.69 198.92C51.57 194.03 35.13 184.6 23.21 171.69C7.22001 154.4 -0.989991 130.57 0.0900089 104.61C1.06001 81.32 9.37001 58.01 22.9 40.67C43.15 14.72 78.14 -0.469992 116.56 0.0100075C153.9 0.490008 187.14 15.27 205.84 39.63C212.93 43.75 219.28 48.72 224.56 54.42C250.21 82.12 250.55 124.58 225.56 180.63C204.63 227.58 178.42 253.41 147.66 257.42C145.71 257.67 143.76 257.8 141.83 257.8ZM84.36 201.84C85.94 204.33 87.54 206.74 89.17 209.06C107.72 235.5 127.97 248.76 146.22 246.38C164.55 243.99 191.42 229.86 215.39 176.1C237.04 127.53 238.61 90.66 220.09 66.38C223.41 75.69 225.53 85.56 226.16 95.18C227.24 111.58 224.65 135.11 206.23 154.08C194.99 165.65 179.46 173.6 162.61 176.76C149.29 191.71 128.78 200.99 105.18 202.52C98.21 202.97 91.22 202.73 84.36 201.85V201.84ZM77 189.28C85.9 191.24 95.19 192 104.47 191.4C119.78 190.41 133.53 185.79 144.25 178.26C144.12 178.26 143.99 178.26 143.87 178.26C121.88 177.66 102.53 169 89.37 153.87C77.7 140.46 71.59 122.45 72.15 103.17C72.67 85.41 78.89 67.77 89.21 54.76C103.05 37.32 124.79 27.17 150.42 26.19C159.7 25.84 168.96 26.74 177.82 28.75C161.27 17.78 139.77 11.46 116.42 11.16C115.86 11.16 115.31 11.15 114.75 11.15C80.47 11.15 49.52 24.68 31.69 47.53C7.90001 78.02 1.02001 131.28 31.39 164.15C39.59 173.03 50.25 180.05 62.19 184.77C51.32 162.66 42.76 137.58 37.16 112.66L48.02 110.22C54.43 138.75 64.6 166.48 77 189.29V189.28ZM154.42 37.24C153.23 37.24 152.03 37.26 150.84 37.31C128.5 38.16 109.71 46.81 97.93 61.67C80.95 83.07 76.07 121.6 97.77 146.55C108.86 159.3 125.34 166.6 144.17 167.12C148.39 167.24 152.59 167 156.72 166.45C157.16 165.88 157.59 165.3 158.01 164.71C172.28 144.57 150.94 128.16 134.44 95.58L144.38 90.55C157.17 115.81 183.1 137.66 171.87 162.82C182.02 159.27 191.16 153.64 198.26 146.33C226.12 117.64 214.85 71.14 198.3 48.13C185.52 41.17 170.13 37.25 154.44 37.25L154.42 37.24Z" fill="white"/>
</g>
<defs>
<clipPath id="clip0_309_3454">
<rect width="718.99" height="257.8" fill="white"/>
</clipPath>
</defs>
</svg>
