<svg width="183" height="140" viewBox="0 0 183 140" fill="none" xmlns="http://www.w3.org/2000/svg">
<path d="M0 140V103.158C0 91.9688 1.97856 80.0975 5.93567 67.5439C10.0292 54.8538 15.8967 42.6413 23.538 30.9064C31.3158 19.0351 40.6628 8.73293 51.5789 0L77.7778 21.2865C69.1813 33.5672 61.6764 46.3938 55.2632 59.7661C48.9863 73.0019 45.8479 87.193 45.8479 102.339V140H0ZM104.795 140V103.158C104.795 91.9688 106.774 80.0975 110.731 67.5439C114.825 54.8538 120.692 42.6413 128.333 30.9064C136.111 19.0351 145.458 8.73293 156.374 0L182.573 21.2865C173.977 33.5672 166.472 46.3938 160.058 59.7661C153.782 73.0019 150.643 87.193 150.643 102.339V140H104.795Z" fill="#F4F4F5"/>
</svg>
